<svg xmlns="http://www.w3.org/2000/svg" xmlns:xlink="http://www.w3.org/1999/xlink" width="183.134mm" height="127.318mm" viewBox="4037.6 3002.5 288.4 200.5"><title></title><style type="text/css">
*[layerid="1"] {stroke:#FF0000;fill:#FF0000;}
*[layerid="2"] {stroke:#0000FF;fill:#0000FF;}
*[layerid="3"] {stroke:#FFCC00;fill:#FFCC00;}
*[layerid="4"] {stroke:#66CC33;fill:#66CC33;}
*[layerid="5"] {stroke:#808080;fill:#808080;}
*[layerid="6"] {stroke:#800000;fill:#800000;}
*[layerid="7"] {stroke:#800080;fill:#800080;stroke-opacity:0.7;fill-opacity:0.7;}
*[layerid="8"] {stroke:#AA00FF;fill:#AA00FF;stroke-opacity:0.7;fill-opacity:0.7;}
*[layerid="9"] {stroke:#6464FF;fill:#6464FF;}
*[layerid="10"] {stroke:#FF00FF;fill:#FF00FF;}
*[layerid="11"] {stroke:#C0C0C0;fill:#C0C0C0;}
*[layerid="12"] {stroke:#FFFFFF;fill:#FFFFFF;}
*[layerid="13"] {stroke:#33CC99;fill:#33CC99;}
*[layerid="14"] {stroke:#5555FF;fill:#5555FF;}
*[layerid="15"] {stroke:#F022F0;fill:#F022F0;}
*[layerid="19"] {stroke:#66CCFF;fill:#66CCFF;}
*[layerid="21"] {stroke:#999966;fill:#999966;}
*[layerid="22"] {stroke:#008000;fill:#008000;}
*[layerid="23"] {stroke:#00FF00;fill:#00FF00;}
*[layerid="24"] {stroke:#BC8E00;fill:#BC8E00;}
*[layerid="25"] {stroke:#70DBFA;fill:#70DBFA;}
*[layerid="26"] {stroke:#00CC66;fill:#00CC66;}
*[layerid="27"] {stroke:#9966FF;fill:#9966FF;}
*[layerid="28"] {stroke:#800080;fill:#800080;}
*[layerid="29"] {stroke:#008080;fill:#008080;}
*[layerid="30"] {stroke:#15935F;fill:#15935F;}
*[layerid="31"] {stroke:#000080;fill:#000080;}
*[layerid="32"] {stroke:#00B400;fill:#00B400;}
*[layerid="33"] {stroke:#2E4756;fill:#2E4756;}
*[layerid="34"] {stroke:#99842F;fill:#99842F;}
*[layerid="35"] {stroke:#FFFFAA;fill:#FFFFAA;}
*[layerid="36"] {stroke:#99842F;fill:#99842F;}
*[layerid="37"] {stroke:#2E4756;fill:#2E4756;}
*[layerid="38"] {stroke:#3535FF;fill:#3535FF;}
*[layerid="39"] {stroke:#8000BC;fill:#8000BC;}
*[layerid="40"] {stroke:#43AE5F;fill:#43AE5F;}
*[layerid="41"] {stroke:#C3ECCE;fill:#C3ECCE;}
*[layerid="42"] {stroke:#728978;fill:#728978;}
*[layerid="43"] {stroke:#39503F;fill:#39503F;}
*[layerid="44"] {stroke:#0C715D;fill:#0C715D;}
*[layerid="45"] {stroke:#5A8A80;fill:#5A8A80;}
*[layerid="46"] {stroke:#2B937E;fill:#2B937E;}
*[layerid="47"] {stroke:#23999D;fill:#23999D;}
*[layerid="48"] {stroke:#45B4E3;fill:#45B4E3;}
*[layerid="49"] {stroke:#215DA1;fill:#215DA1;}
*[layerid="50"] {stroke:#4564D7;fill:#4564D7;}
*[layerid="51"] {stroke:#6969E9;fill:#6969E9;}
*[layerid="52"] {stroke:#9069E9;fill:#9069E9;}
*[layerid="99"] {stroke:#00CCCC;fill:#00CCCC;stroke-opacity:0.6;fill-opacity:0.6;}
*[layerid="100"] {stroke:#CC9999;fill:#CC9999;}
*[layerid="101"] {stroke:#66FFCC;fill:#66FFCC;}
*[layerid="Hole"] {stroke:#222222;fill:#222222;}
*[layerid="DRCError"] {stroke:#FAD609;fill:#FAD609;}
*[fill="none"] {fill: none;}
*[stroke="none"] {stroke: none;}
path, polyline, polygon, line {stroke-linecap:round;}
g[c_partid="part_pad"][layerid="1"] ellipse:not([c_etype="pad_outer"]) {fill:#FF0000;}
g[c_partid="part_pad"][layerid="1"] polygon:not([c_etype="pad_outer"]) {fill:#FF0000;}
g[c_partid="part_pad"][layerid="1"] polyline:not([c_etype="pad_outer"]) {stroke:#FF0000;}
g[c_partid="part_pad"][layerid="2"] ellipse:not([c_etype="pad_outer"]) {fill:#0000FF;}
g[c_partid="part_pad"][layerid="2"] polygon:not([c_etype="pad_outer"]) {fill:#0000FF;}
g[c_partid="part_pad"][layerid="2"] polyline:not([c_etype="pad_outer"]) {stroke:#0000FF;}
g[c_partid="part_pad"][layerid="11"] ellipse:not([c_etype="pad_outer"]) {fill:#C0C0C0;}
g[c_partid="part_pad"][layerid="11"] polygon:not([c_etype="pad_outer"]) {fill:#C0C0C0;}
g[c_partid="part_pad"][layerid="11"] polyline:not([c_etype="pad_outer"]) {stroke:#C0C0C0;}
g[c_partid="part_pad"][layerid="11"] circle {fill:#222222;}
g[c_partid="part_pad"][layerid="11"] > polyline:nth-of-type(2) {stroke:#222222;}
g[c_partid="part_pad"][layerid="11"][c_shape="ELLIPSE"]  polyline:nth-last-of-type(1) {stroke:#222222;}
g[c_partid="part_pad"][layerid="11"][c_shape="RECT"]  polyline:nth-last-of-type(1) {stroke:#222222;}
g[c_partid="part_pad"][layerid="11"][c_shape="POLYGON"]  polyline:nth-last-of-type(1) {stroke:#222222;}
g[c_partid="part_via"] > * + circle, #gCurParts g[c_partid="part_via"] > * + circle {fill:#222222;}
g[c_partid="part_pad"] > polygon[c_etype="pad_outer"], #gCurParts g[c_partid="part_pad"] > polygon[c_etype="pad_outer"] {stroke-linejoin: round;stroke-miterlimit: 100;}
g[c_partid="part_hole"] > circle {fill: #222222;}path, polyline, polygon {stroke-linejoin:round;}
rect, circle, ellipse, polyline, line, polygon, path {shape-rendering:crispEdges;}
</style>
<rect x="4037.6" y="3002.5" width="288.4" height="200.5" fill="#000000" stroke="none"/><g transform="matrix(-1, 0, 0, 1, 8363.6, 0)"><polyline points="4153.843 3055 4179.343 3080.5 4216 3080.5 4222 3086.5 4222 3101.5 4203 3120.5 4118.5 3120.5 4101.5 3137.5 4101.5 3158" stroke-width="3.937"  stroke-linecap="round" fill="none" layerid="2" net="C2_2" id="gge7088" locked="0" /><polyline points="4134.158 3055 4134.158 3055.3152 4153.8428 3075" stroke-width="3.937"  stroke-linecap="round" fill="none" layerid="2" net="C1_2" id="gge7061" locked="0" /><polyline points="4134.158 3075 4101 3075 4097.5 3071.5 4097.5 3063.481" stroke-width="3.937"  stroke-linecap="round" fill="none" layerid="2" net="C1_1" id="gge7296" locked="0" /><polyline points="4201.5 3158 4201.5 3130 4227.5 3104 4227.5 3084 4203.5 3060 4203.5 3048.705" stroke-width="3.937"  stroke-linecap="round" fill="none" layerid="2" net="C1_2" id="gge7085" locked="0" /><polyline points="4107.5 3063.481 4107.5 3061.5 4114 3055 4134.158 3055" stroke-width="3.937"  stroke-linecap="round" fill="none" layerid="2" net="C1_2" id="gge7058" locked="0" /></g><g transform="matrix(-1, 0, 0, 1, 8363.6, 0)"><g c_partid="part_pcbtext" c_etype="pinpart" c_origin="4179.5,3191" c_rotation="0" c_mirror="1" id="gge7314" locked="0" layerid="4" c_shapetype="group" ><path c_fontsize="3.9369999999999994" c_fontfamily="" c_text="QCPCB001A" d="M4178.4263 3187.0272L4178.7842 3187.2062 4179.1421 3187.5641 4179.321 3187.922 4179.5 3188.4588 4179.5 3189.3536 4179.321 3189.8905 4179.1421 3190.2484 4178.7842 3190.6063 4178.4263 3190.7853 4177.7105 3190.7853 4177.3525 3190.6063 4176.9946 3190.2484 4176.8157 3189.8905 4176.6367 3189.3536 4176.6367 3188.4588 4176.8157 3187.922 4176.9946 3187.5641 4177.3525 3187.2062 4177.7105 3187.0272 4178.4263 3187.0272M4177.8894 3190.0694L4176.8157 3191.1432M4172.7713 3187.922L4172.9503 3187.5641 4173.3082 3187.2062 4173.6661 3187.0272 4174.3819 3187.0272 4174.7398 3187.2062 4175.0977 3187.5641 4175.2767 3187.922 4175.4556 3188.4588 4175.4556 3189.3536 4175.2767 3189.8905 4175.0977 3190.2484 4174.7398 3190.6063 4174.3819 3190.7853 4173.6661 3190.7853 4173.3082 3190.6063 4172.9503 3190.2484 4172.7713 3189.8905M4171.5902 3187.0272L4171.5902 3190.7853M4171.5902 3187.0272L4169.9796 3187.0272 4169.4428 3187.2062 4169.2638 3187.3851 4169.0848 3187.743 4169.0848 3188.2799 4169.2638 3188.6378 4169.4428 3188.8168 4169.9796 3188.9957 4171.5902 3188.9957M4165.2194 3187.922L4165.3984 3187.5641 4165.7563 3187.2062 4166.1142 3187.0272 4166.83 3187.0272 4167.1879 3187.2062 4167.5458 3187.5641 4167.7248 3187.922 4167.9037 3188.4588 4167.9037 3189.3536 4167.7248 3189.8905 4167.5458 3190.2484 4167.1879 3190.6063 4166.83 3190.7853 4166.1142 3190.7853 4165.7563 3190.6063 4165.3984 3190.2484 4165.2194 3189.8905M4164.0383 3187.0272L4164.0383 3190.7853M4164.0383 3187.0272L4162.4277 3187.0272 4161.8909 3187.2062 4161.7119 3187.3851 4161.533 3187.743 4161.533 3188.1009 4161.7119 3188.4588 4161.8909 3188.6378 4162.4277 3188.8168M4164.0383 3188.8168L4162.4277 3188.8168 4161.8909 3188.9957 4161.7119 3189.1747 4161.533 3189.5326 4161.533 3190.0694 4161.7119 3190.4273 4161.8909 3190.6063 4162.4277 3190.7853 4164.0383 3190.7853M4159.2781 3187.0272L4159.815 3187.2062 4160.1729 3187.743 4160.3519 3188.6378 4160.3519 3189.1747 4160.1729 3190.0694 4159.815 3190.6063 4159.2781 3190.7853 4158.9202 3190.7853 4158.3834 3190.6063 4158.0255 3190.0694 4157.8465 3189.1747 4157.8465 3188.6378 4158.0255 3187.743 4158.3834 3187.2062 4158.9202 3187.0272 4159.2781 3187.0272M4155.5917 3187.0272L4156.1285 3187.2062 4156.4864 3187.743 4156.6654 3188.6378 4156.6654 3189.1747 4156.4864 3190.0694 4156.1285 3190.6063 4155.5917 3190.7853 4155.2338 3190.7853 4154.6969 3190.6063 4154.339 3190.0694 4154.16 3189.1747 4154.16 3188.6378 4154.339 3187.743 4154.6969 3187.2062 4155.2338 3187.0272 4155.5917 3187.0272M4152.9789 3187.743L4152.621 3187.5641 4152.0842 3187.0272 4152.0842 3190.7853M4149.4714 3187.0272L4150.9031 3190.7853M4149.4714 3187.0272L4148.0398 3190.7853M4150.3662 3189.5326L4148.5767 3189.5326" fill="none"  stroke-width="0.8"  /></g><g c_partid="part_pcbtext" c_etype="pinpart" c_origin="4289.5,3098" c_rotation="0" c_mirror="1" id="gge7335" locked="0" layerid="4" c_shapetype="group" ><path c_fontsize="8" c_fontfamily="" c_text="9V DC" d="M 4284.7727 3092.4727 L 4285.1364 3093.5636 L 4285.8636 3094.2909 L 4286.9545 3094.6545 L 4287.3182 3094.6545 L 4288.4091 3094.2909 L 4289.1364 3093.5636 L 4289.5 3092.4727 L 4289.5 3092.1091 L 4289.1364 3091.0182 L 4288.4091 3090.2909 L 4287.3182 3089.9273 L 4286.9545 3089.9273 L 4285.8636 3090.2909 L 4285.1364 3091.0182 L 4284.7727 3092.4727 L 4284.7727 3094.2909 L 4285.1364 3096.1091 L 4285.8636 3097.2 L 4286.9545 3097.5636 L 4287.6818 3097.5636 L 4288.7727 3097.2 L 4289.1364 3096.4727 M 4282.3727 3089.9273 L 4279.4636 3097.5636 M 4276.5545 3089.9273 L 4279.4636 3097.5636 M 4268.5545 3089.9273 L 4268.5545 3097.5636 M 4268.5545 3089.9273 L 4266.0091 3089.9273 L 4264.9182 3090.2909 L 4264.1909 3091.0182 L 4263.8273 3091.7455 L 4263.4636 3092.8364 L 4263.4636 3094.6545 L 4263.8273 3095.7455 L 4264.1909 3096.4727 L 4264.9182 3097.2 L 4266.0091 3097.5636 L 4268.5545 3097.5636 M 4255.6091 3091.7455 L 4255.9727 3091.0182 L 4256.7 3090.2909 L 4257.4273 3089.9273 L 4258.8818 3089.9273 L 4259.6091 3090.2909 L 4260.3364 3091.0182 L 4260.7 3091.7455 L 4261.0636 3092.8364 L 4261.0636 3094.6545 L 4260.7 3095.7455 L 4260.3364 3096.4727 L 4259.6091 3097.2 L 4258.8818 3097.5636 L 4257.4273 3097.5636 L 4256.7 3097.2 L 4255.9727 3096.4727 L 4255.6091 3095.7455" fill="none"  stroke-width="0.8"  /></g><g c_partid="part_pcbtext" c_etype="pinpart" c_origin="4289.5,3108" c_rotation="0" c_mirror="1" id="gge7359" locked="0" layerid="4" c_shapetype="group" ><path c_fontsize="8" c_fontfamily="" c_text="100mA" d="M 4289.5 3101.3818 L 4288.7727 3101.0182 L 4287.6818 3099.9273 L 4287.6818 3107.5636 M 4283.1 3099.9273 L 4284.1909 3100.2909 L 4284.9182 3101.3818 L 4285.2818 3103.2 L 4285.2818 3104.2909 L 4284.9182 3106.1091 L 4284.1909 3107.2 L 4283.1 3107.5636 L 4282.3727 3107.5636 L 4281.2818 3107.2 L 4280.5545 3106.1091 L 4280.1909 3104.2909 L 4280.1909 3103.2 L 4280.5545 3101.3818 L 4281.2818 3100.2909 L 4282.3727 3099.9273 L 4283.1 3099.9273 M 4275.6091 3099.9273 L 4276.7 3100.2909 L 4277.4273 3101.3818 L 4277.7909 3103.2 L 4277.7909 3104.2909 L 4277.4273 3106.1091 L 4276.7 3107.2 L 4275.6091 3107.5636 L 4274.8818 3107.5636 L 4273.7909 3107.2 L 4273.0636 3106.1091 L 4272.7 3104.2909 L 4272.7 3103.2 L 4273.0636 3101.3818 L 4273.7909 3100.2909 L 4274.8818 3099.9273 L 4275.6091 3099.9273 M 4270.3 3102.4727 L 4270.3 3107.5636 M 4270.3 3103.9273 L 4269.2091 3102.8364 L 4268.4818 3102.4727 L 4267.3909 3102.4727 L 4266.6636 3102.8364 L 4266.3 3103.9273 L 4266.3 3107.5636 M 4266.3 3103.9273 L 4265.2091 3102.8364 L 4264.4818 3102.4727 L 4263.3909 3102.4727 L 4262.6636 3102.8364 L 4262.3 3103.9273 L 4262.3 3107.5636 M 4256.9909 3099.9273 L 4259.9 3107.5636 M 4256.9909 3099.9273 L 4254.0818 3107.5636 M 4258.8091 3105.0182 L 4255.1727 3105.0182" fill="none"  stroke-width="0.8"  /></g><g c_partid="part_pcbtext" c_etype="pinpart" c_origin="4289.5,3118" c_rotation="0" c_mirror="1" id="gge7383" locked="0" layerid="4" c_shapetype="group" ><path c_fontsize="8" c_fontfamily="" c_text="1,20m max" d="M4289.5 3111.3818L4288.7727 3111.0182 4287.6818 3109.9273 4287.6818 3117.5636M4284.5545 3116.1091L4284.9182 3116.4727 4285.2818 3116.1091 4284.9182 3115.7455 4284.5545 3116.1091 4284.5545 3116.8364 4285.2818 3117.5636M4281.7909 3111.7455L4281.7909 3111.3818 4281.4273 3110.6545 4281.0636 3110.2909 4280.3364 3109.9273 4278.8818 3109.9273 4278.1545 3110.2909 4277.7909 3110.6545 4277.4273 3111.3818 4277.4273 3112.1091 4277.7909 3112.8364 4278.5182 3113.9273 4282.1545 3117.5636 4277.0636 3117.5636M4272.4818 3109.9273L4273.5727 3110.2909 4274.3 3111.3818 4274.6636 3113.2 4274.6636 3114.2909 4274.3 3116.1091 4273.5727 3117.2 4272.4818 3117.5636 4271.7545 3117.5636 4270.6636 3117.2 4269.9364 3116.1091 4269.5727 3114.2909 4269.5727 3113.2 4269.9364 3111.3818 4270.6636 3110.2909 4271.7545 3109.9273 4272.4818 3109.9273M4267.1727 3112.4727L4267.1727 3117.5636M4267.1727 3113.9273L4266.0818 3112.8364 4265.3545 3112.4727 4264.2636 3112.4727 4263.5364 3112.8364 4263.1727 3113.9273 4263.1727 3117.5636M4263.1727 3113.9273L4262.0818 3112.8364 4261.3545 3112.4727 4260.2636 3112.4727 4259.5364 3112.8364 4259.1727 3113.9273 4259.1727 3117.5636M4251.1727 3112.4727L4251.1727 3117.5636M4251.1727 3113.9273L4250.0818 3112.8364 4249.3545 3112.4727 4248.2636 3112.4727 4247.5364 3112.8364 4247.1727 3113.9273 4247.1727 3117.5636M4247.1727 3113.9273L4246.0818 3112.8364 4245.3545 3112.4727 4244.2636 3112.4727 4243.5364 3112.8364 4243.1727 3113.9273 4243.1727 3117.5636M4236.4091 3112.4727L4236.4091 3117.5636M4236.4091 3113.5636L4237.1364 3112.8364 4237.8636 3112.4727 4238.9545 3112.4727 4239.6818 3112.8364 4240.4091 3113.5636 4240.7727 3114.6545 4240.7727 3115.3818 4240.4091 3116.4727 4239.6818 3117.2 4238.9545 3117.5636 4237.8636 3117.5636 4237.1364 3117.2 4236.4091 3116.4727M4234.0091 3112.4727L4230.0091 3117.5636M4230.0091 3112.4727L4234.0091 3117.5636" fill="none"  stroke-width="0.8"  /></g></g><g transform="matrix(-1, 0, 0, 1, 8363.6, 0)"><g c_partid="part_pad" c_etype="pinpart" c_origin="4080,3028" layerid="11" number="1" net="C1_2" plated ="Y"  id="gge7106" locked="0" c_rotation="0" c_width="12.5984" c_height="12.5984" title="C1_2" c_shape="ELLIPSE" pasteexpansion="0" solderexpansion="0.2"><ellipse c_etype="pad_shell" cx="4080" cy="3028" rx="6.2992" ry="6.2992" layerid="11" stroke-width="0"/><circle c_etype="pad_hole" cx="4080" cy="3028" r="5.9055" layerid="11" stroke-width="0"/></g><g c_partid="part_pad" c_etype="pinpart" c_origin="4080,3178" layerid="11" number="2" net="C1_2" plated ="Y"  id="gge7151" locked="0" c_rotation="0" c_width="12.5984" c_height="12.5984" title="C1_2" c_shape="ELLIPSE" pasteexpansion="0" solderexpansion="0.2"><ellipse c_etype="pad_shell" cx="4080" cy="3178" rx="6.2992" ry="6.2992" layerid="11" stroke-width="0"/><circle c_etype="pad_hole" cx="4080" cy="3178" r="5.9055" layerid="11" stroke-width="0"/></g><g c_partid="part_pad" c_etype="pinpart" c_origin="4220.5,3178" layerid="11" number="4" net="C1_2" plated ="Y"  id="gge7223" locked="0" c_rotation="0" c_width="12.5984" c_height="12.5984" title="C1_2" c_shape="ELLIPSE" pasteexpansion="0" solderexpansion="0.2"><ellipse c_etype="pad_shell" cx="4220.5" cy="3178" rx="6.2992" ry="6.2992" layerid="11" stroke-width="0"/><circle c_etype="pad_hole" cx="4220.5" cy="3178" r="5.9055" layerid="11" stroke-width="0"/></g><g c_partid="part_pad" c_etype="pinpart" c_origin="4219.5,3028" layerid="11" number="6" net="C1_2" plated ="Y"  id="gge7277" locked="0" c_rotation="0" c_width="12.5984" c_height="12.5984" title="C1_2" c_shape="ELLIPSE" pasteexpansion="0" solderexpansion="0.2"><ellipse c_etype="pad_shell" cx="4219.5" cy="3028" rx="6.2992" ry="6.2992" layerid="11" stroke-width="0"/><circle c_etype="pad_hole" cx="4219.5" cy="3028" r="5.9055" layerid="11" stroke-width="0"/></g><g c_partid="part_pad" c_etype="pinpart" c_origin="4309,3117.5" layerid="11" number="1" net="ARDUINO_27" plated ="Y"  id="gge5341" locked="0" c_rotation="90" c_width="5.937" c_height="5.937" title="ARDUINO_27" c_shape="RECT" pasteexpansion="0" solderexpansion="0.2"><polygon  c_etype="pad_shell" points="4306.0315 3120.4685 4306.0315 3114.5315 4311.9685 3114.5315 4311.9685 3120.4685" layerid="11" stroke-width="0" /><polyline c_etype="pad_hole" points="4309 3117.5005 4309 3117.4995" layerid="11" stroke-width="3.936"></polyline></g><g c_partid="part_pad" c_etype="pinpart" c_origin="4309,3107.5" layerid="11" number="2" net="ARDUINO_9" plated ="Y"  id="gge5356" locked="0" c_rotation="90" c_width="5.937" c_height="5.937" title="ARDUINO_9" c_shape="ELLIPSE" pasteexpansion="0" solderexpansion="0.2"><ellipse c_etype="pad_shell" cx="4309" cy="3107.5" rx="2.9685" ry="2.9685" layerid="11" stroke-width="0"/><polyline c_etype="pad_hole" points="4309 3107.5005 4309 3107.4995" layerid="11" stroke-width="3.936"></polyline></g><g c_partid="part_pad" c_etype="pinpart" c_origin="4309,3097.5" layerid="11" number="3" net="ARDUINO_8" plated ="Y"  id="gge5371" locked="0" c_rotation="90" c_width="5.937" c_height="5.937" title="ARDUINO_8" c_shape="ELLIPSE" pasteexpansion="0" solderexpansion="0.2"><ellipse c_etype="pad_shell" cx="4309" cy="3097.5" rx="2.9685" ry="2.9685" layerid="11" stroke-width="0"/><polyline c_etype="pad_hole" points="4309 3097.5005 4309 3097.4995" layerid="11" stroke-width="3.936"></polyline></g><g c_partid="part_pad" c_etype="pinpart" c_origin="4309,3087.5" layerid="11" number="4" net="C1_2" plated ="Y"  id="gge5386" locked="0" c_rotation="90" c_width="5.937" c_height="5.937" title="C1_2" c_shape="ELLIPSE" pasteexpansion="0" solderexpansion="0.2"><ellipse c_etype="pad_shell" cx="4309" cy="3087.5" rx="2.9685" ry="2.9685" layerid="11" stroke-width="0"/><polyline c_etype="pad_hole" points="4309 3087.5005 4309 3087.4995" layerid="11" stroke-width="3.936"></polyline></g><g c_partid="part_pad" c_etype="pinpart" c_origin="4211.5,3098" layerid="11" number="1" net="ARDUINO_1" plated ="Y"  id="gge5851" locked="0" c_rotation="0" c_width="6.2992" c_height="6.2992" title="ARDUINO_1" c_shape="RECT" pasteexpansion="0" solderexpansion="0.2"><polygon  c_etype="pad_shell" points="4208.3504 3094.8504 4214.6496 3094.8504 4214.6496 3101.1496 4208.3504 3101.1496" layerid="11" stroke-width="0" /><circle c_etype="pad_hole" cx="4211.5" cy="3098" r="1.7717" layerid="11" stroke-width="0"/></g><g c_partid="part_pad" c_etype="pinpart" c_origin="4201.5,3158" layerid="11" number="29" net="C1_2" plated ="Y"  id="gge5866" locked="0" c_rotation="0" c_width="6.2992" c_height="6.2992" title="C1_2" c_shape="ELLIPSE" pasteexpansion="0" solderexpansion="0.2"><ellipse c_etype="pad_shell" cx="4201.5" cy="3158" rx="3.1496" ry="3.1496" layerid="11" stroke-width="0"/><circle c_etype="pad_hole" cx="4201.5" cy="3158" r="1.7717" layerid="11" stroke-width="0"/></g><g c_partid="part_pad" c_etype="pinpart" c_origin="4181.5,3158" layerid="11" number="27" net="ARDUINO_27" plated ="Y"  id="gge5881" locked="0" c_rotation="0" c_width="6.2992" c_height="6.2992" title="ARDUINO_27" c_shape="ELLIPSE" pasteexpansion="0" solderexpansion="0.2"><ellipse c_etype="pad_shell" cx="4181.5" cy="3158" rx="3.1496" ry="3.1496" layerid="11" stroke-width="0"/><circle c_etype="pad_hole" cx="4181.4978" cy="3158.0018" r="1.7717" layerid="11" stroke-width="0"/></g><g c_partid="part_pad" c_etype="pinpart" c_origin="4161.5,3158" layerid="11" number="25" net="ARDUINO_25" plated ="Y"  id="gge5896" locked="0" c_rotation="0" c_width="6.2992" c_height="6.2992" title="ARDUINO_25" c_shape="ELLIPSE" pasteexpansion="0" solderexpansion="0.2"><ellipse c_etype="pad_shell" cx="4161.5" cy="3158" rx="3.1496" ry="3.1496" layerid="11" stroke-width="0"/><circle c_etype="pad_hole" cx="4161.4979" cy="3158.0018" r="1.7717" layerid="11" stroke-width="0"/></g><g c_partid="part_pad" c_etype="pinpart" c_origin="4141.5,3158" layerid="11" number="23" net="ARDUINO_23" plated ="Y"  id="gge5911" locked="0" c_rotation="0" c_width="6.2992" c_height="6.2992" title="ARDUINO_23" c_shape="ELLIPSE" pasteexpansion="0" solderexpansion="0.2"><ellipse c_etype="pad_shell" cx="4141.5" cy="3158" rx="3.1496" ry="3.1496" layerid="11" stroke-width="0"/><circle c_etype="pad_hole" cx="4141.4979" cy="3158.0018" r="1.7717" layerid="11" stroke-width="0"/></g><g c_partid="part_pad" c_etype="pinpart" c_origin="4121.5,3158" layerid="11" number="21" net="ARDUINO_21" plated ="Y"  id="gge5926" locked="0" c_rotation="0" c_width="6.2992" c_height="6.2992" title="ARDUINO_21" c_shape="ELLIPSE" pasteexpansion="0" solderexpansion="0.2"><ellipse c_etype="pad_shell" cx="4121.5" cy="3158" rx="3.1496" ry="3.1496" layerid="11" stroke-width="0"/><circle c_etype="pad_hole" cx="4121.4979" cy="3158.0018" r="1.7717" layerid="11" stroke-width="0"/></g><g c_partid="part_pad" c_etype="pinpart" c_origin="4101.5,3158" layerid="11" number="19" net="C2_2" plated ="Y"  id="gge5941" locked="0" c_rotation="0" c_width="6.2992" c_height="6.2992" title="C2_2" c_shape="ELLIPSE" pasteexpansion="0" solderexpansion="0.2"><ellipse c_etype="pad_shell" cx="4101.5" cy="3158" rx="3.1496" ry="3.1496" layerid="11" stroke-width="0"/><circle c_etype="pad_hole" cx="4101.4979" cy="3158.0018" r="1.7717" layerid="11" stroke-width="0"/></g><g c_partid="part_pad" c_etype="pinpart" c_origin="4081.5,3158" layerid="11" number="17" net="ARDUINO_17" plated ="Y"  id="gge5956" locked="0" c_rotation="0" c_width="6.2992" c_height="6.2992" title="ARDUINO_17" c_shape="ELLIPSE" pasteexpansion="0" solderexpansion="0.2"><ellipse c_etype="pad_shell" cx="4081.5" cy="3158" rx="3.1496" ry="3.1496" layerid="11" stroke-width="0"/><circle c_etype="pad_hole" cx="4081.4979" cy="3158.0018" r="1.7717" layerid="11" stroke-width="0"/></g><g c_partid="part_pad" c_etype="pinpart" c_origin="4071.5,3098" layerid="11" number="15" net="ARDUINO_15" plated ="Y"  id="gge5971" locked="0" c_rotation="0" c_width="6.2992" c_height="6.2992" title="ARDUINO_15" c_shape="ELLIPSE" pasteexpansion="0" solderexpansion="0.2"><ellipse c_etype="pad_shell" cx="4071.5" cy="3098" rx="3.1496" ry="3.1496" layerid="11" stroke-width="0"/><circle c_etype="pad_hole" cx="4071.5" cy="3098" r="1.7717" layerid="11" stroke-width="0"/></g><g c_partid="part_pad" c_etype="pinpart" c_origin="4091.5,3098" layerid="11" number="13" net="ARDUINO_13" plated ="Y"  id="gge5986" locked="0" c_rotation="0" c_width="6.2992" c_height="6.2992" title="ARDUINO_13" c_shape="ELLIPSE" pasteexpansion="0" solderexpansion="0.2"><ellipse c_etype="pad_shell" cx="4091.5" cy="3098" rx="3.1496" ry="3.1496" layerid="11" stroke-width="0"/><circle c_etype="pad_hole" cx="4091.502" cy="3098.0018" r="1.7717" layerid="11" stroke-width="0"/></g><g c_partid="part_pad" c_etype="pinpart" c_origin="4111.5,3098" layerid="11" number="11" net="ARDUINO_11" plated ="Y"  id="gge6001" locked="0" c_rotation="0" c_width="6.2992" c_height="6.2992" title="ARDUINO_11" c_shape="ELLIPSE" pasteexpansion="0" solderexpansion="0.2"><ellipse c_etype="pad_shell" cx="4111.5" cy="3098" rx="3.1496" ry="3.1496" layerid="11" stroke-width="0"/><circle c_etype="pad_hole" cx="4111.502" cy="3098.0018" r="1.7717" layerid="11" stroke-width="0"/></g><g c_partid="part_pad" c_etype="pinpart" c_origin="4131.5,3098" layerid="11" number="9" net="ARDUINO_9" plated ="Y"  id="gge6016" locked="0" c_rotation="0" c_width="6.2992" c_height="6.2992" title="ARDUINO_9" c_shape="ELLIPSE" pasteexpansion="0" solderexpansion="0.2"><ellipse c_etype="pad_shell" cx="4131.5" cy="3098" rx="3.1496" ry="3.1496" layerid="11" stroke-width="0"/><circle c_etype="pad_hole" cx="4131.502" cy="3098.0018" r="1.7717" layerid="11" stroke-width="0"/></g><g c_partid="part_pad" c_etype="pinpart" c_origin="4151.5,3098" layerid="11" number="7" net="ARDUINO_7" plated ="Y"  id="gge6031" locked="0" c_rotation="0" c_width="6.2992" c_height="6.2992" title="ARDUINO_7" c_shape="ELLIPSE" pasteexpansion="0" solderexpansion="0.2"><ellipse c_etype="pad_shell" cx="4151.5" cy="3098" rx="3.1496" ry="3.1496" layerid="11" stroke-width="0"/><circle c_etype="pad_hole" cx="4151.5021" cy="3098.0018" r="1.7717" layerid="11" stroke-width="0"/></g><g c_partid="part_pad" c_etype="pinpart" c_origin="4171.5,3098" layerid="11" number="5" net="ARDUINO_5" plated ="Y"  id="gge6046" locked="0" c_rotation="0" c_width="6.2992" c_height="6.2992" title="ARDUINO_5" c_shape="ELLIPSE" pasteexpansion="0" solderexpansion="0.2"><ellipse c_etype="pad_shell" cx="4171.5" cy="3098" rx="3.1496" ry="3.1496" layerid="11" stroke-width="0"/><circle c_etype="pad_hole" cx="4171.502" cy="3098.0018" r="1.7717" layerid="11" stroke-width="0"/></g><g c_partid="part_pad" c_etype="pinpart" c_origin="4191.5,3098" layerid="11" number="3" net="ARDUINO_3" plated ="Y"  id="gge6061" locked="0" c_rotation="0" c_width="6.2992" c_height="6.2992" title="ARDUINO_3" c_shape="ELLIPSE" pasteexpansion="0" solderexpansion="0.2"><ellipse c_etype="pad_shell" cx="4191.5" cy="3098" rx="3.1496" ry="3.1496" layerid="11" stroke-width="0"/><circle c_etype="pad_hole" cx="4191.5019" cy="3098.0018" r="1.7717" layerid="11" stroke-width="0"/></g><g c_partid="part_pad" c_etype="pinpart" c_origin="4201.5,3098" layerid="11" number="2" net="ARDUINO_2" plated ="Y"  id="gge6076" locked="0" c_rotation="0" c_width="6.2992" c_height="6.2992" title="ARDUINO_2" c_shape="ELLIPSE" pasteexpansion="0" solderexpansion="0.2"><ellipse c_etype="pad_shell" cx="4201.5" cy="3098" rx="3.1496" ry="3.1496" layerid="11" stroke-width="0"/><circle c_etype="pad_hole" cx="4201.5" cy="3097.9999" r="1.7717" layerid="11" stroke-width="0"/></g><g c_partid="part_pad" c_etype="pinpart" c_origin="4181.5,3098" layerid="11" number="4" net="ARDUINO_4" plated ="Y"  id="gge6091" locked="0" c_rotation="0" c_width="6.2992" c_height="6.2992" title="ARDUINO_4" c_shape="ELLIPSE" pasteexpansion="0" solderexpansion="0.2"><ellipse c_etype="pad_shell" cx="4181.5" cy="3098" rx="3.1496" ry="3.1496" layerid="11" stroke-width="0"/><circle c_etype="pad_hole" cx="4181.5" cy="3097.9999" r="1.7717" layerid="11" stroke-width="0"/></g><g c_partid="part_pad" c_etype="pinpart" c_origin="4161.5,3098" layerid="11" number="6" net="ARDUINO_6" plated ="Y"  id="gge6106" locked="0" c_rotation="0" c_width="6.2992" c_height="6.2992" title="ARDUINO_6" c_shape="ELLIPSE" pasteexpansion="0" solderexpansion="0.2"><ellipse c_etype="pad_shell" cx="4161.5" cy="3098" rx="3.1496" ry="3.1496" layerid="11" stroke-width="0"/><circle c_etype="pad_hole" cx="4161.5" cy="3097.9999" r="1.7717" layerid="11" stroke-width="0"/></g><g c_partid="part_pad" c_etype="pinpart" c_origin="4141.5,3098" layerid="11" number="8" net="ARDUINO_8" plated ="Y"  id="gge6121" locked="0" c_rotation="0" c_width="6.2992" c_height="6.2992" title="ARDUINO_8" c_shape="ELLIPSE" pasteexpansion="0" solderexpansion="0.2"><ellipse c_etype="pad_shell" cx="4141.5" cy="3098" rx="3.1496" ry="3.1496" layerid="11" stroke-width="0"/><circle c_etype="pad_hole" cx="4141.5001" cy="3097.9999" r="1.7717" layerid="11" stroke-width="0"/></g><g c_partid="part_pad" c_etype="pinpart" c_origin="4121.5,3098" layerid="11" number="10" net="ARDUINO_10" plated ="Y"  id="gge6136" locked="0" c_rotation="0" c_width="6.2992" c_height="6.2992" title="ARDUINO_10" c_shape="ELLIPSE" pasteexpansion="0" solderexpansion="0.2"><ellipse c_etype="pad_shell" cx="4121.5" cy="3098" rx="3.1496" ry="3.1496" layerid="11" stroke-width="0"/><circle c_etype="pad_hole" cx="4121.5001" cy="3097.9999" r="1.7717" layerid="11" stroke-width="0"/></g><g c_partid="part_pad" c_etype="pinpart" c_origin="4101.5,3098" layerid="11" number="12" net="ARDUINO_12" plated ="Y"  id="gge6151" locked="0" c_rotation="0" c_width="6.2992" c_height="6.2992" title="ARDUINO_12" c_shape="ELLIPSE" pasteexpansion="0" solderexpansion="0.2"><ellipse c_etype="pad_shell" cx="4101.5" cy="3098" rx="3.1496" ry="3.1496" layerid="11" stroke-width="0"/><circle c_etype="pad_hole" cx="4101.5001" cy="3097.9999" r="1.7717" layerid="11" stroke-width="0"/></g><g c_partid="part_pad" c_etype="pinpart" c_origin="4081.5,3098" layerid="11" number="14" net="ARDUINO_14" plated ="Y"  id="gge6166" locked="0" c_rotation="0" c_width="6.2992" c_height="6.2992" title="ARDUINO_14" c_shape="ELLIPSE" pasteexpansion="0" solderexpansion="0.2"><ellipse c_etype="pad_shell" cx="4081.5" cy="3098" rx="3.1496" ry="3.1496" layerid="11" stroke-width="0"/><circle c_etype="pad_hole" cx="4081.5001" cy="3097.9999" r="1.7717" layerid="11" stroke-width="0"/></g><g c_partid="part_pad" c_etype="pinpart" c_origin="4071.5,3158" layerid="11" number="16" net="ARDUINO_16" plated ="Y"  id="gge6181" locked="0" c_rotation="0" c_width="6.2992" c_height="6.2992" title="ARDUINO_16" c_shape="ELLIPSE" pasteexpansion="0" solderexpansion="0.2"><ellipse c_etype="pad_shell" cx="4071.5" cy="3158" rx="3.1496" ry="3.1496" layerid="11" stroke-width="0"/><circle c_etype="pad_hole" cx="4071.4999" cy="3157.9999" r="1.7717" layerid="11" stroke-width="0"/></g><g c_partid="part_pad" c_etype="pinpart" c_origin="4091.5,3158" layerid="11" number="18" net="ARDUINO_18" plated ="Y"  id="gge6196" locked="0" c_rotation="0" c_width="6.2992" c_height="6.2992" title="ARDUINO_18" c_shape="ELLIPSE" pasteexpansion="0" solderexpansion="0.2"><ellipse c_etype="pad_shell" cx="4091.5" cy="3158" rx="3.1496" ry="3.1496" layerid="11" stroke-width="0"/><circle c_etype="pad_hole" cx="4091.4998" cy="3157.9999" r="1.7717" layerid="11" stroke-width="0"/></g><g c_partid="part_pad" c_etype="pinpart" c_origin="4111.5,3158" layerid="11" number="20" net="ARDUINO_20" plated ="Y"  id="gge6211" locked="0" c_rotation="0" c_width="6.2992" c_height="6.2992" title="ARDUINO_20" c_shape="ELLIPSE" pasteexpansion="0" solderexpansion="0.2"><ellipse c_etype="pad_shell" cx="4111.5" cy="3158" rx="3.1496" ry="3.1496" layerid="11" stroke-width="0"/><circle c_etype="pad_hole" cx="4111.4998" cy="3157.9999" r="1.7717" layerid="11" stroke-width="0"/></g><g c_partid="part_pad" c_etype="pinpart" c_origin="4131.5,3158" layerid="11" number="22" net="ARDUINO_22" plated ="Y"  id="gge6226" locked="0" c_rotation="0" c_width="6.2992" c_height="6.2992" title="ARDUINO_22" c_shape="ELLIPSE" pasteexpansion="0" solderexpansion="0.2"><ellipse c_etype="pad_shell" cx="4131.5" cy="3158" rx="3.1496" ry="3.1496" layerid="11" stroke-width="0"/><circle c_etype="pad_hole" cx="4131.4998" cy="3157.9999" r="1.7717" layerid="11" stroke-width="0"/></g><g c_partid="part_pad" c_etype="pinpart" c_origin="4151.5,3158" layerid="11" number="24" net="ARDUINO_24" plated ="Y"  id="gge6241" locked="0" c_rotation="0" c_width="6.2992" c_height="6.2992" title="ARDUINO_24" c_shape="ELLIPSE" pasteexpansion="0" solderexpansion="0.2"><ellipse c_etype="pad_shell" cx="4151.5" cy="3158" rx="3.1496" ry="3.1496" layerid="11" stroke-width="0"/><circle c_etype="pad_hole" cx="4151.4998" cy="3157.9999" r="1.7717" layerid="11" stroke-width="0"/></g><g c_partid="part_pad" c_etype="pinpart" c_origin="4171.5,3158" layerid="11" number="26" net="ARDUINO_26" plated ="Y"  id="gge6256" locked="0" c_rotation="0" c_width="6.2992" c_height="6.2992" title="ARDUINO_26" c_shape="ELLIPSE" pasteexpansion="0" solderexpansion="0.2"><ellipse c_etype="pad_shell" cx="4171.5" cy="3158" rx="3.1496" ry="3.1496" layerid="11" stroke-width="0"/><circle c_etype="pad_hole" cx="4171.4998" cy="3157.9999" r="1.7717" layerid="11" stroke-width="0"/></g><g c_partid="part_pad" c_etype="pinpart" c_origin="4191.5,3158" layerid="11" number="28" net="ARDUINO_28" plated ="Y"  id="gge6271" locked="0" c_rotation="0" c_width="6.2992" c_height="6.2992" title="ARDUINO_28" c_shape="ELLIPSE" pasteexpansion="0" solderexpansion="0.2"><ellipse c_etype="pad_shell" cx="4191.5" cy="3158" rx="3.1496" ry="3.1496" layerid="11" stroke-width="0"/><circle c_etype="pad_hole" cx="4191.4997" cy="3157.9999" r="1.7717" layerid="11" stroke-width="0"/></g><g c_partid="part_pad" c_etype="pinpart" c_origin="4211.5,3158" layerid="11" number="30" net="C2_2" plated ="Y"  id="gge6286" locked="0" c_rotation="0" c_width="6.2992" c_height="6.2992" title="C2_2" c_shape="RECT" pasteexpansion="0" solderexpansion="0.2"><polygon  c_etype="pad_shell" points="4208.3504 3154.8504 4214.6496 3154.8504 4214.6496 3161.1496 4208.3504 3161.1496" layerid="11" stroke-width="0" /><circle c_etype="pad_hole" cx="4211.5" cy="3158" r="1.7717" layerid="11" stroke-width="0"/></g><g c_partid="part_pad" c_etype="pinpart" c_origin="4054,3075" layerid="11" number="1" net="C1_2" plated ="Y"  id="gge6331" locked="0" c_rotation="0" c_width="6.6929" c_height="6.6929" title="C1_2" c_shape="RECT" pasteexpansion="0" solderexpansion="0.2"><polygon  c_etype="pad_shell" points="4050.6535 3071.6535 4057.3465 3071.6535 4057.3465 3078.3465 4050.6535 3078.3465" layerid="11" stroke-width="0" /><circle c_etype="pad_hole" cx="4054" cy="3075" r="2.1654" layerid="11" stroke-width="0"/></g><g c_partid="part_pad" c_etype="pinpart" c_origin="4203.5,3074.295" layerid="11" number="1" net="ARDUINO_6" plated ="Y"  id="gge6406" locked="0" c_rotation="90" c_width="6" c_height="6" title="ARDUINO_6" c_shape="RECT" pasteexpansion="0" solderexpansion="0.1969"><polygon  c_etype="pad_shell" points="4200.5 3077.2953 4200.5 3071.2953 4206.5 3071.2953 4206.5 3077.2953" layerid="11" stroke-width="0" /><circle c_etype="pad_hole" cx="4203.5" cy="3074.2953" r="1.8" layerid="11" stroke-width="0"/></g><g c_partid="part_pad" c_etype="pinpart" c_origin="4203.5,3048.705" layerid="11" number="2" net="C1_2" plated ="Y"  id="gge6421" locked="0" c_rotation="90" c_width="6" c_height="6" title="C1_2" c_shape="ELLIPSE" pasteexpansion="0" solderexpansion="0.1969"><ellipse c_etype="pad_shell" cx="4203.5" cy="3048.705" rx="3" ry="3" layerid="11" stroke-width="0"/><circle c_etype="pad_hole" cx="4203.5" cy="3048.7047" r="1.8" layerid="11" stroke-width="0"/></g><g c_partid="part_pad" c_etype="pinpart" c_origin="4107.5,3063.481" layerid="11" number="2" net="C1_2" plated ="Y"  id="gge6484" locked="0" c_rotation="0" c_width="7.0866" c_height="10.2362" title="C1_2" c_shape="OVAL" pasteexpansion="0" solderexpansion="0.2"><polyline  c_etype="pad_shell" points="4107.5 3061.9062 4107.5 3065.0558" layerid="11" stroke-width="7.0866" /><circle c_etype="pad_hole" cx="4107.4995" cy="3063.4805" r="2.3622" layerid="11" stroke-width="0"/></g><g c_partid="part_pad" c_etype="pinpart" c_origin="4117.501,3063.52" layerid="11" number="3" net="C2_2" plated ="Y"  id="gge6499" locked="0" c_rotation="0" c_width="7.0866" c_height="10.2362" title="C2_2" c_shape="OVAL" pasteexpansion="0" solderexpansion="0.2"><polyline  c_etype="pad_shell" points="4117.501 3061.9452 4117.501 3065.0948" layerid="11" stroke-width="7.0866" /><circle c_etype="pad_hole" cx="4117.4995" cy="3063.5199" r="2.3622" layerid="11" stroke-width="0"/></g><g c_partid="part_pad" c_etype="pinpart" c_origin="4097.5,3063.48" layerid="11" number="1" net="C1_1" plated ="Y"  id="gge6514" locked="0" c_rotation="0" c_width="7.0866" c_height="10.2362" title="C1_1" c_shape="RECT" pasteexpansion="0" solderexpansion="0.2"><polygon  c_etype="pad_shell" points="4093.9562 3058.3624 4101.0428 3058.3624 4101.0428 3068.5986 4093.9562 3068.5986" layerid="11" stroke-width="0" /><circle c_etype="pad_hole" cx="4097.4995" cy="3063.4805" r="2.3622" layerid="11" stroke-width="0"/></g><g c_partid="part_pad" c_etype="pinpart" c_origin="4054,3063.5" layerid="11" number="1" net="C1_1" plated ="Y"  id="gge6559" locked="0" c_rotation="0" c_width="6.6929" c_height="6.6929" title="C1_1" c_shape="RECT" pasteexpansion="0" solderexpansion="0.2"><polygon  c_etype="pad_shell" points="4050.6535 3060.1535 4057.3465 3060.1535 4057.3465 3066.8465 4050.6535 3066.8465" layerid="11" stroke-width="0" /><circle c_etype="pad_hole" cx="4054" cy="3063.5" r="2.1654" layerid="11" stroke-width="0"/></g><g c_partid="part_pad" c_etype="pinpart" c_origin="4134.158,3075" layerid="11" number="1" net="C1_1" plated ="Y"  id="gge48" locked="0" c_rotation="0" c_width="6.2992" c_height="6.2992" title="C1_1" c_shape="ELLIPSE" pasteexpansion="0" solderexpansion="0.2"><ellipse c_etype="pad_shell" cx="4134.158" cy="3075" rx="3.1496" ry="3.1496" layerid="11" stroke-width="0"/><circle c_etype="pad_hole" cx="4134.1575" cy="3075" r="1.9685" layerid="11" stroke-width="0"/></g><g c_partid="part_pad" c_etype="pinpart" c_origin="4153.843,3075" layerid="11" number="2" net="C1_2" plated ="Y"  id="gge63" locked="0" c_rotation="0" c_width="6.2992" c_height="6.2992" title="C1_2" c_shape="ELLIPSE" pasteexpansion="0" solderexpansion="0.2"><ellipse c_etype="pad_shell" cx="4153.843" cy="3075" rx="3.1496" ry="3.1496" layerid="11" stroke-width="0"/><circle c_etype="pad_hole" cx="4153.8425" cy="3075" r="1.9685" layerid="11" stroke-width="0"/></g><g c_partid="part_pad" c_etype="pinpart" c_origin="4134.158,3055" layerid="11" number="1" net="C1_2" plated ="Y"  id="gge123" locked="0" c_rotation="0" c_width="6.2992" c_height="6.2992" title="C1_2" c_shape="ELLIPSE" pasteexpansion="0" solderexpansion="0.2"><ellipse c_etype="pad_shell" cx="4134.158" cy="3055" rx="3.1496" ry="3.1496" layerid="11" stroke-width="0"/><circle c_etype="pad_hole" cx="4134.1575" cy="3055" r="1.9685" layerid="11" stroke-width="0"/></g><g c_partid="part_pad" c_etype="pinpart" c_origin="4153.843,3055" layerid="11" number="2" net="C2_2" plated ="Y"  id="gge138" locked="0" c_rotation="0" c_width="6.2992" c_height="6.2992" title="C2_2" c_shape="ELLIPSE" pasteexpansion="0" solderexpansion="0.2"><ellipse c_etype="pad_shell" cx="4153.843" cy="3055" rx="3.1496" ry="3.1496" layerid="11" stroke-width="0"/><circle c_etype="pad_hole" cx="4153.8425" cy="3055" r="1.9685" layerid="11" stroke-width="0"/></g><g c_partid="part_hole" c_etype="pinpart" c_shapetype="group" c_origin="4240.929,3185.571" layerid="11" id="gge5284" locked="0" ><circle cx="4240.929" cy="3185.571" r="3.543"  stroke-width="0" /></g><g c_partid="part_hole" c_etype="pinpart" c_shapetype="group" c_origin="4308.646,3185.571" layerid="11" id="gge5296" locked="0" ><circle cx="4308.646" cy="3185.571" r="3.543"  stroke-width="0" /></g><g c_partid="part_hole" c_etype="pinpart" c_shapetype="group" c_origin="4308.646,3019.429" layerid="11" id="gge5308" locked="0" ><circle cx="4308.646" cy="3019.429" r="3.543"  stroke-width="0" /></g><g c_partid="part_hole" c_etype="pinpart" c_shapetype="group" c_origin="4240.929,3019.429" layerid="11" id="gge5320" locked="0" ><circle cx="4240.929" cy="3019.429" r="3.543"  stroke-width="0" /></g></g><g transform="matrix(-1, 0, 0, 1, 8363.6, 0)"><polyline points="4047.56 3046.43 4047.56 3012.5 4316 3012.5 4316 3193 4047.56 3193 4047.56 3046.43" stroke-width="1"  stroke-linecap="round" fill="none" layerid="10" net="" id="gge1494" locked="0" /></g></svg>